<svg width="238" height="34" viewBox="0 0 238 34" fill="none" xmlns="http://www.w3.org/2000/svg">
<path d="M108.016 16.4316H114.46C115.973 16.4316 117.275 16.9858 118.365 18.0941C119.455 19.2023 120 20.5256 120 22.064V28.8129H118.511C118.104 28.8129 117.746 28.664 117.437 28.3663C117.144 28.052 116.998 27.6964 116.998 27.2994V22.064C116.998 21.3527 116.754 20.7407 116.266 20.2279C115.778 19.6986 115.176 19.4339 114.46 19.4339H110.994V23.1805C110.994 23.8918 111.238 24.4956 111.726 24.9918C112.231 25.4881 112.841 25.7362 113.557 25.7362H115.582V28.8129H113.557C112.564 28.8129 111.637 28.5648 110.774 28.0685C109.928 27.5558 109.253 26.8693 108.749 26.0091C108.26 25.1324 108.016 24.1896 108.016 23.1805V16.4316Z" fill="#1D3A34"/>
<path d="M103.363 28.8132V16.4319H106.316V28.8132H103.363ZM104.07 15.1913C103.826 15.1913 103.59 15.1665 103.363 15.1169C103.119 14.0913 103.346 13.2063 104.046 12.462C104.567 11.9326 105.217 11.668 105.999 11.668C106.129 11.668 106.348 11.6928 106.657 11.7424C106.918 12.768 106.682 13.6529 105.95 14.3973C105.429 14.9266 104.803 15.1913 104.07 15.1913Z" fill="#1D3A34"/>
<path d="M95.9104 12.71H98.888V16.4318H101.67V19.4341H98.888V24.7439C98.888 25.0251 98.9856 25.2649 99.1809 25.4634C99.3924 25.6454 99.6365 25.7363 99.9131 25.7363H101.67V28.8131H99.9131C98.8229 28.8131 97.8792 28.4161 97.0819 27.6221C96.3009 26.8115 95.9104 25.8521 95.9104 24.7439V12.71Z" fill="#1D3A34"/>
<path d="M82.1426 16.4316H88.5859C90.0992 16.4316 91.4008 16.9858 92.491 18.0941C93.5812 19.2023 94.1262 20.5256 94.1262 22.064V28.8129H92.6374C92.2307 28.8129 91.8727 28.664 91.5635 28.3663C91.2707 28.052 91.1242 27.6964 91.1242 27.2994V22.064C91.1242 21.3527 90.8802 20.7407 90.392 20.2279C89.9039 19.6986 89.3019 19.4339 88.5859 19.4339H85.1202V23.1805C85.1202 23.8918 85.3643 24.4956 85.8524 24.9918C86.3568 25.4881 86.967 25.7362 87.6829 25.7362H89.7086V28.8129H87.6829C86.6904 28.8129 85.7629 28.5648 84.9006 28.0685C84.0545 27.5558 83.3792 26.8693 82.8748 26.0091C82.3867 25.1324 82.1426 24.1896 82.1426 23.1805V16.4316Z" fill="#1D3A34"/>
<path d="M74.0616 16.4316H80.5049V23.1805C80.5049 24.7189 79.9598 26.0422 78.8697 27.1505C77.7795 28.2588 76.4778 28.8129 74.9646 28.8129H72.8657V25.7362H74.9646C75.6805 25.7362 76.2826 25.4881 76.7707 24.9918C77.2751 24.4956 77.5273 23.8918 77.5273 23.1805V19.4339H74.0616C73.3457 19.4339 72.7274 19.6986 72.2067 20.2279C71.7023 20.7407 71.4501 21.3527 71.4501 22.064V32.2618C71.4501 32.6588 71.3036 32.9979 71.0108 33.2791C70.7179 33.5768 70.3681 33.7257 69.9613 33.7257H68.5213V22.064C68.5213 20.5091 69.0582 19.1858 70.1321 18.0941C71.206 16.9858 72.5158 16.4316 74.0616 16.4316Z" fill="#1D3A34"/>
<path d="M54.8512 16.4316H61.3433C62.8565 16.4316 64.15 16.9858 65.2239 18.0941C66.2978 19.2023 66.8348 20.5256 66.8348 22.064V28.8129H60.3914C59.3989 28.8129 58.4715 28.5648 57.6091 28.0685C56.763 27.5558 56.0877 26.8693 55.5833 26.0091C55.0952 25.1324 54.8512 24.1896 54.8512 23.1805V16.4316ZM61.3433 19.4339H57.8776V23.1805C57.8776 23.8918 58.1216 24.4956 58.6098 24.9918C59.0979 25.4881 59.6918 25.7362 60.3914 25.7362H63.906V22.064C63.906 21.6008 63.7839 21.1708 63.5399 20.7738C63.3121 20.3602 62.9948 20.0377 62.588 19.8061C62.1975 19.558 61.7826 19.4339 61.3433 19.4339Z" fill="#1D3A34"/>
<path d="M46.6635 28.8129V22.064C46.6635 21.3031 46.81 20.5753 47.1028 19.8805C47.3957 19.1858 47.7862 18.5903 48.2744 18.0941C48.7788 17.5813 49.3727 17.176 50.056 16.8783C50.7394 16.5805 51.4553 16.4316 52.2038 16.4316H53.8879V19.4339H52.2038C51.4879 19.4339 50.8777 19.6986 50.3733 20.2279C49.8852 20.7407 49.6411 21.3527 49.6411 22.064V28.8129H46.6635Z" fill="#1D3A34"/>
<path d="M33.8282 16.4316H36.8058V23.1805C36.8058 23.8753 37.058 24.4791 37.5624 24.9918C38.083 25.4881 38.6851 25.7362 39.3684 25.7362H41.8091V16.4316H44.7867V28.8129H39.3684C37.8227 28.8129 36.5129 28.267 35.439 27.1753C34.3651 26.067 33.8282 24.7354 33.8282 23.1805V16.4316Z" fill="#1D3A34"/>
<path d="M26.6445 12.71H29.6221V16.4318H32.4044V19.4341H29.6221V24.7439C29.6221 25.0251 29.7197 25.2649 29.9149 25.4634C30.1265 25.6454 30.3705 25.7363 30.6471 25.7363H32.4044V28.8131H30.6471C29.557 28.8131 28.6133 28.4161 27.816 27.6221C27.035 26.8115 26.6445 25.8521 26.6445 24.7439V12.71Z" fill="#1D3A34"/>
<path d="M12.8767 16.4316H19.32C20.8332 16.4316 22.1349 16.9858 23.2251 18.0941C24.3152 19.2023 24.8603 20.5256 24.8603 22.064V28.8129H23.3715C22.9647 28.8129 22.6068 28.664 22.2976 28.3663C22.0047 28.052 21.8583 27.6964 21.8583 27.2994V22.064C21.8583 21.3527 21.6142 20.7407 21.1261 20.2279C20.638 19.6986 20.036 19.4339 19.32 19.4339H15.8543V23.1805C15.8543 23.8918 16.0984 24.4956 16.5865 24.9918C17.0909 25.4881 17.7011 25.7362 18.417 25.7362H20.4427V28.8129H18.417C17.4245 28.8129 16.497 28.5648 15.6346 28.0685C14.7886 27.5558 14.1133 26.8693 13.6089 26.0091C13.1208 25.1324 12.8767 24.1896 12.8767 23.1805V16.4316Z" fill="#1D3A34"/>
<path d="M0 16.4316H5.68672C7.19992 16.4316 8.50161 16.9858 9.59176 18.0941C10.6819 19.2023 11.227 20.5256 11.227 22.064V28.8129H8.20059V22.064C8.20059 21.3527 7.94839 20.7407 7.44399 20.2279C6.95586 19.6986 6.3701 19.4339 5.68672 19.4339H2.9776V28.8129H0V16.4316Z" fill="#1D3A34"/>
<path d="M58.3481 10.9844C57.5602 11.2264 55.7885 12.5946 55.3022 15.4287C54.2393 14.1821 53.0396 13.1811 51.9389 12.6631C52.9813 13.674 53.8042 14.5288 54.5005 15.3496L54.3911 15.4111C53.5262 15.756 52.6234 15.4378 52.2134 15.1816C50.1218 14.2439 49.6414 11.604 49.6626 10.4014L52.3862 11.1943C54.1758 11.7535 54.8948 12.7151 55.105 13.5869C55.7108 12.0327 56.7472 10.203 58.1577 9.72559L58.3481 10.9844Z" fill="#99C47E"/>
<path d="M154 15.7256L142 27.7256M142 15.7256L154 27.7256" stroke="black" stroke-width="1.5" stroke-linecap="round" stroke-linejoin="round"/>
<path d="M187.535 7H186.086L187.968 1.42412H189.762L191.643 7H190.195L188.885 2.82898H188.841L187.535 7ZM187.341 4.80559H190.369V5.82928H187.341V4.80559ZM204.656 1.42412V7H203.512L201.293 3.78189H201.258V7H199.91V1.42412H201.07L203.264 4.63679H203.311V1.42412H204.656ZM212.988 2.51861V1.42412H217.7V2.51861H216.01V7H214.681V2.51861H212.988ZM227.373 1.42412V7H226.025V1.42412H227.373Z" fill="#1E1E1E"/>
<path d="M223.838 33.7258V13.792H237.203V16.9098H227.722V21.6377H235.082V24.5511H227.722V30.6079H237.357V33.7258H223.838Z" fill="#1E1E1E"/>
<path d="M206.349 33.7258V13.792H210.182V21.6633H211.715L217.67 13.792H222.04V13.9453L214.961 23.0433L223.037 33.5724V33.7258H218.334L211.715 24.8067H210.182V33.7258H206.349Z" fill="#1E1E1E"/>
<path d="M197.686 18.0986L189.777 33.7139H185.428L195.507 13.792L197.686 18.0986ZM205.587 33.7139H194.152L196.154 29.7607H199.157L197.656 26.7949L199.872 22.4189L205.587 33.7139Z" fill="#1E1E1E"/>
<path d="M176.347 33.7258V13.792H189.432V16.9098H180.231V21.7655H187.285V24.6533H180.231V33.7258H176.347Z" fill="#1E1E1E"/>
</svg>
